<svg width="1439" height="697" xmlns="http://www.w3.org/2000/svg"><g><path d="M-48,-75L-93,758L-57,150Z" fill="#c8f9ee" stroke="#c8f9ee"/><path d="M-48,-75L-57,150L-44,44Z" fill="#f8fef3" stroke="#f8fef3"/><path d="M-48,-75L-44,44L39,-67Z" fill="#f9fdf5" stroke="#f9fdf5"/><path d="M-48,-75L39,-67L436,-79Z" fill="#eaf7e9" stroke="#eaf7e9"/><path d="M-48,-75L436,-79L763,-83Z" fill="#d2eedf" stroke="#d2eedf"/><path d="M-48,-75L763,-83L1346,-91Z" fill="#b2dee3" stroke="#b2dee3"/><path d="M39,-67L-44,44L59,81Z" fill="#f4fcf0" stroke="#f4fcf0"/><path d="M39,-67L59,81L152,-26Z" fill="#f0f9ed" stroke="#f0f9ed"/><path d="M39,-67L152,-26L320,-39Z" fill="#e8f6e7" stroke="#e8f6e7"/><path d="M39,-67L320,-39L436,-79Z" fill="#dff3df" stroke="#dff3df"/><path d="M152,-26L59,81L178,89Z" fill="#e6f8e4" stroke="#e6f8e4"/><path d="M152,-26L178,89L320,-39Z" fill="#e2f4e2" stroke="#e2f4e2"/><path d="M320,-39L178,89L320,74Z" fill="#d9f2da" stroke="#d9f2da"/><path d="M320,-39L320,74L429,93Z" fill="#d0efda" stroke="#d0efda"/><path d="M320,-39L429,93L436,-79Z" fill="#d1eddf" stroke="#d1eddf"/><path d="M436,-79L429,93L549,87Z" fill="#c5eadd" stroke="#c5eadd"/><path d="M436,-79L549,87L559,-71Z" fill="#c4e8e1" stroke="#c4e8e1"/><path d="M436,-79L559,-71L666,-81Z" fill="#c0e7e1" stroke="#c0e7e1"/><path d="M436,-79L666,-81L763,-83Z" fill="#b9e2e2" stroke="#b9e2e2"/><path d="M559,-71L549,87L693,85Z" fill="#b7e4df" stroke="#b7e4df"/><path d="M559,-71L693,85L666,-81Z" fill="#b7e1e2" stroke="#b7e1e2"/><path d="M666,-81L693,85L763,-83Z" fill="#b0dce3" stroke="#b0dce3"/><path d="M763,-83L693,85L803,73Z" fill="#a9d9e1" stroke="#a9d9e1"/><path d="M763,-83L803,73L875,-76Z" fill="#a6d4e4" stroke="#a6d4e4"/><path d="M763,-83L875,-76L1346,-91Z" fill="#94c4de" stroke="#94c4de"/><path d="M875,-76L803,73L927,91Z" fill="#9dd0e1" stroke="#9dd0e1"/><path d="M875,-76L927,91L1014,-62Z" fill="#9ac9e1" stroke="#9ac9e1"/><path d="M875,-76L1014,-62L1346,-91Z" fill="#8bbbda" stroke="#8bbbda"/><path d="M1014,-62L927,91L1054,65Z" fill="#90c3da" stroke="#90c3da"/><path d="M1014,-62L1054,65L1121,-38Z" fill="#8dbdda" stroke="#8dbdda"/><path d="M1014,-62L1121,-38L1346,-91Z" fill="#83b3d5" stroke="#83b3d5"/><path d="M1121,-38L1054,65L1111,94Z" fill="#84b9d4" stroke="#84b9d4"/><path d="M1121,-38L1111,94L1228,68Z" fill="#7fb4d1" stroke="#7fb4d1"/><path d="M1121,-38L1228,68L1292,-44Z" fill="#80add2" stroke="#80add2"/><path d="M1121,-38L1292,-44L1346,-91Z" fill="#80a9d0" stroke="#80a9d0"/><path d="M1292,-44L1228,68L1351,35Z" fill="#7da6cc" stroke="#7da6cc"/><path d="M1292,-44L1351,35L1346,-91Z" fill="#80a2cc" stroke="#80a2cc"/><path d="M1346,-91L1351,35L1481,46Z" fill="#809bc9" stroke="#809bc9"/><path d="M1346,-91L1481,46L1529,-69Z" fill="#8095c6" stroke="#8095c6"/><path d="M1529,-69L1481,46L1470,174Z" fill="#7a91be" stroke="#7a91be"/><path d="M1529,-69L1470,174L1486,300Z" fill="#7091b5" stroke="#7091b5"/><path d="M1529,-69L1486,300L1522,436Z" fill="#598cb6" stroke="#598cb6"/><path d="M-44,44L-57,150L59,81Z" fill="#eefdeb" stroke="#eefdeb"/><path d="M59,81L-57,150L66,181Z" fill="#e5fbe3" stroke="#e5fbe3"/><path d="M59,81L66,181L178,89Z" fill="#e0f9df" stroke="#e0f9df"/><path d="M178,89L66,181L202,155Z" fill="#d9f7d9" stroke="#d9f7d9"/><path d="M178,89L202,155L320,74Z" fill="#d5f4d6" stroke="#d5f4d6"/><path d="M320,74L202,155L306,206Z" fill="#ccf2cf" stroke="#ccf2cf"/><path d="M320,74L306,206L429,93Z" fill="#c7efd1" stroke="#c7efd1"/><path d="M429,93L306,206L451,191Z" fill="#baecd1" stroke="#baecd1"/><path d="M429,93L451,191L549,87Z" fill="#baead2" stroke="#baead2"/><path d="M549,87L451,191L571,200Z" fill="#ade7d2" stroke="#ade7d2"/><path d="M549,87L571,200L686,145Z" fill="#a9e4d3" stroke="#a9e4d3"/><path d="M549,87L686,145L693,85Z" fill="#aae1d7" stroke="#aae1d7"/><path d="M693,85L686,145L777,158Z" fill="#a0dbd5" stroke="#a0dbd5"/><path d="M693,85L777,158L803,73Z" fill="#9fd8d8" stroke="#9fd8d8"/><path d="M803,73L777,158L927,91Z" fill="#97d3d8" stroke="#97d3d8"/><path d="M927,91L777,158L920,198Z" fill="#8dcfd5" stroke="#8dcfd5"/><path d="M927,91L920,198L1016,183Z" fill="#82c7d1" stroke="#82c7d1"/><path d="M927,91L1016,183L1054,65Z" fill="#86c3d1" stroke="#86c3d1"/><path d="M1054,65L1016,183L1111,94Z" fill="#80bdce" stroke="#80bdce"/><path d="M1111,94L1016,183L1136,174Z" fill="#77baca" stroke="#77baca"/><path d="M1111,94L1136,174L1228,68Z" fill="#76b3c9" stroke="#76b3c9"/><path d="M1228,68L1136,174L1254,166Z" fill="#70aec4" stroke="#70aec4"/><path d="M1228,68L1254,166L1351,35Z" fill="#75a7c5" stroke="#75a7c5"/><path d="M1351,35L1254,166L1351,197Z" fill="#70a3be" stroke="#70a3be"/><path d="M1351,35L1351,197L1470,174Z" fill="#709cba" stroke="#709cba"/><path d="M1351,35L1470,174L1481,46Z" fill="#7697be" stroke="#7697be"/><path d="M-57,150L-93,758L-58,534Z" fill="#9dd0ea" stroke="#9dd0ea"/><path d="M-57,150L-58,534L-46,308Z" fill="#baefef" stroke="#baefef"/><path d="M-57,150L-46,308L66,181Z" fill="#d4fae8" stroke="#d4fae8"/><path d="M66,181L-46,308L64,319Z" fill="#c2f6e7" stroke="#c2f6e7"/><path d="M66,181L64,319L169,278Z" fill="#bdf4e1" stroke="#bdf4e1"/><path d="M66,181L169,278L202,155Z" fill="#c8f4dc" stroke="#c8f4dc"/><path d="M202,155L169,278L289,280Z" fill="#b8f0d7" stroke="#b8f0d7"/><path d="M202,155L289,280L306,206Z" fill="#baf0d2" stroke="#baf0d2"/><path d="M306,206L289,280L414,325Z" fill="#a4ead3" stroke="#a4ead3"/><path d="M306,206L414,325L451,191Z" fill="#a6e9d3" stroke="#a6e9d3"/><path d="M451,191L414,325L558,273Z" fill="#97e4d5" stroke="#97e4d5"/><path d="M451,191L558,273L571,200Z" fill="#9ce4d5" stroke="#9ce4d5"/><path d="M571,200L558,273L655,287Z" fill="#8cdfd6" stroke="#8cdfd6"/><path d="M571,200L655,287L686,145Z" fill="#94ded5" stroke="#94ded5"/><path d="M686,145L655,287L777,158Z" fill="#91dad6" stroke="#91dad6"/><path d="M777,158L655,287L801,272Z" fill="#81d5d8" stroke="#81d5d8"/><path d="M777,158L801,272L920,198Z" fill="#81d0d7" stroke="#81d0d7"/><path d="M920,198L801,272L896,332Z" fill="#6dcad9" stroke="#6dcad9"/><path d="M920,198L896,332L1048,271Z" fill="#65c2d5" stroke="#65c2d5"/><path d="M920,198L1048,271L1016,183Z" fill="#6ec0d1" stroke="#6ec0d1"/><path d="M1016,183L1048,271L1136,174Z" fill="#69b9cd" stroke="#69b9cd"/><path d="M1136,174L1048,271L1151,334Z" fill="#57b3cd" stroke="#57b3cd"/><path d="M1136,174L1151,334L1233,315Z" fill="#4cacca" stroke="#4cacca"/><path d="M1136,174L1233,315L1254,166Z" fill="#5aabc6" stroke="#5aabc6"/><path d="M1254,166L1233,315L1351,197Z" fill="#58a3c3" stroke="#58a3c3"/><path d="M1351,197L1233,315L1406,309Z" fill="#4b9cc2" stroke="#4b9cc2"/><path d="M1351,197L1406,309L1470,174Z" fill="#5896bc" stroke="#5896bc"/><path d="M1470,174L1406,309L1486,300Z" fill="#4f90bb" stroke="#4f90bb"/><path d="M-46,308L-58,534L-44,401Z" fill="#a6e0f1" stroke="#a6e0f1"/><path d="M-46,308L-44,401L64,319Z" fill="#b3ebeb" stroke="#b3ebeb"/><path d="M64,319L-44,401L76,443Z" fill="#a5e2e9" stroke="#a5e2e9"/><path d="M64,319L76,443L214,430Z" fill="#9adce3" stroke="#9adce3"/><path d="M64,319L214,430L169,278Z" fill="#a4e5df" stroke="#a4e5df"/><path d="M169,278L214,430L295,388Z" fill="#98dfda" stroke="#98dfda"/><path d="M169,278L295,388L289,280Z" fill="#a1e7d7" stroke="#a1e7d7"/><path d="M289,280L295,388L414,325Z" fill="#95e0d5" stroke="#95e0d5"/><path d="M414,325L295,388L394,420Z" fill="#86d7d7" stroke="#86d7d7"/><path d="M414,325L394,420L569,450Z" fill="#78cfd9" stroke="#78cfd9"/><path d="M414,325L569,450L558,273Z" fill="#7dd6d8" stroke="#7dd6d8"/><path d="M558,273L569,450L655,287Z" fill="#77d4d9" stroke="#77d4d9"/><path d="M655,287L569,450L682,415Z" fill="#68c8da" stroke="#68c8da"/><path d="M655,287L682,415L745,419Z" fill="#65c6db" stroke="#65c6db"/><path d="M655,287L745,419L801,272Z" fill="#6cccda" stroke="#6cccda"/><path d="M801,272L745,419L896,332Z" fill="#61c3db" stroke="#61c3db"/><path d="M896,332L745,419L890,438Z" fill="#51b7dd" stroke="#51b7dd"/><path d="M896,332L890,438L1009,437Z" fill="#47aeda" stroke="#47aeda"/><path d="M896,332L1009,437L1048,271Z" fill="#4eb3d5" stroke="#4eb3d5"/><path d="M1048,271L1009,437L1151,334Z" fill="#46a9d1" stroke="#46a9d1"/><path d="M1151,334L1009,437L1172,432Z" fill="#349cd0" stroke="#349cd0"/><path d="M1151,334L1172,432L1233,315Z" fill="#379ccb" stroke="#379ccb"/><path d="M1233,315L1172,432L1282,435Z" fill="#2e91ca" stroke="#2e91ca"/><path d="M1233,315L1282,435L1369,430Z" fill="#2e8bc7" stroke="#2e8bc7"/><path d="M1233,315L1369,430L1406,309Z" fill="#388ec4" stroke="#388ec4"/><path d="M1406,309L1369,430L1522,436Z" fill="#2f7dc0" stroke="#2f7dc0"/><path d="M1406,309L1522,436L1486,300Z" fill="#3981bc" stroke="#3981bc"/><path d="M-44,401L-58,534L76,443Z" fill="#9bd4e8" stroke="#9bd4e8"/><path d="M76,443L-58,534L54,536Z" fill="#90c7e0" stroke="#90c7e0"/><path d="M76,443L54,536L189,527Z" fill="#89c5da" stroke="#89c5da"/><path d="M76,443L189,527L214,430Z" fill="#89cbda" stroke="#89cbda"/><path d="M214,430L189,527L284,516Z" fill="#7fc3d2" stroke="#7fc3d2"/><path d="M214,430L284,516L295,388Z" fill="#83cdd5" stroke="#83cdd5"/><path d="M295,388L284,516L394,420Z" fill="#7eccd4" stroke="#7eccd4"/><path d="M394,420L284,516L449,568Z" fill="#6ebbcd" stroke="#6ebbcd"/><path d="M394,420L449,568L561,506Z" fill="#65b8cf" stroke="#65b8cf"/><path d="M394,420L561,506L569,450Z" fill="#67c0d5" stroke="#67c0d5"/><path d="M569,450L561,506L682,415Z" fill="#5cbbd6" stroke="#5cbbd6"/><path d="M682,415L561,506L683,570Z" fill="#53aed1" stroke="#53aed1"/><path d="M682,415L683,570L745,419Z" fill="#51b1d6" stroke="#51b1d6"/><path d="M745,419L683,570L799,512Z" fill="#48a6d2" stroke="#48a6d2"/><path d="M745,419L799,512L890,438Z" fill="#49acd8" stroke="#49acd8"/><path d="M890,438L799,512L882,514Z" fill="#3fa1d5" stroke="#3fa1d5"/><path d="M890,438L882,514L1009,437Z" fill="#3ca0d4" stroke="#3ca0d4"/><path d="M1009,437L882,514L1049,518Z" fill="#3295cf" stroke="#3295cf"/><path d="M1009,437L1049,518L1172,432Z" fill="#2d91cd" stroke="#2d91cd"/><path d="M1172,432L1049,518L1153,507Z" fill="#2487c8" stroke="#2487c8"/><path d="M1172,432L1153,507L1282,435Z" fill="#2286c7" stroke="#2286c7"/><path d="M1282,435L1153,507L1272,574Z" fill="#1a77bf" stroke="#1a77bf"/><path d="M1282,435L1272,574L1351,574Z" fill="#176bb9" stroke="#176bb9"/><path d="M1282,435L1351,574L1369,430Z" fill="#1e73bd" stroke="#1e73bd"/><path d="M1369,430L1351,574L1516,560Z" fill="#1861b4" stroke="#1861b4"/><path d="M1369,430L1516,560L1522,436Z" fill="#1f67b7" stroke="#1f67b7"/><path d="M1522,436L1516,560L1514,646Z" fill="#1350ab" stroke="#1350ab"/><path d="M-58,534L-93,758L-31,629Z" fill="#82a8d5" stroke="#82a8d5"/><path d="M-58,534L-31,629L54,536Z" fill="#89b9db" stroke="#89b9db"/><path d="M54,536L-31,629L40,674Z" fill="#7facd2" stroke="#7facd2"/><path d="M54,536L40,674L171,669Z" fill="#76a7cb" stroke="#76a7cb"/><path d="M54,536L171,669L189,527Z" fill="#7ab1ce" stroke="#7ab1ce"/><path d="M189,527L171,669L271,646Z" fill="#6da5c3" stroke="#6da5c3"/><path d="M189,527L271,646L284,516Z" fill="#71b0c7" stroke="#71b0c7"/><path d="M284,516L271,646L449,568Z" fill="#67aac3" stroke="#67aac3"/><path d="M449,568L271,646L453,672Z" fill="#589abd" stroke="#589abd"/><path d="M449,568L453,672L515,693Z" fill="#4d93bc" stroke="#4d93bc"/><path d="M449,568L515,693L561,506Z" fill="#529fc4" stroke="#529fc4"/><path d="M561,506L515,693L683,570Z" fill="#499bc5" stroke="#499bc5"/><path d="M683,570L515,693L678,695Z" fill="#3b89bd" stroke="#3b89bd"/><path d="M683,570L678,695L775,692Z" fill="#3283be" stroke="#3283be"/><path d="M683,570L775,692L799,512Z" fill="#398fc6" stroke="#398fc6"/><path d="M799,512L775,692L935,625Z" fill="#2d84c5" stroke="#2d84c5"/><path d="M799,512L935,625L882,514Z" fill="#3390cc" stroke="#3390cc"/><path d="M882,514L935,625L1049,518Z" fill="#2b87c7" stroke="#2b87c7"/><path d="M1049,518L935,625L1019,632Z" fill="#2079c0" stroke="#2079c0"/><path d="M1049,518L1019,632L1168,651Z" fill="#166fbb" stroke="#166fbb"/><path d="M1049,518L1168,651L1153,507Z" fill="#1975be" stroke="#1975be"/><path d="M1153,507L1168,651L1237,629Z" fill="#0c65b6" stroke="#0c65b6"/><path d="M1153,507L1237,629L1272,574Z" fill="#1068b8" stroke="#1068b8"/><path d="M1272,574L1237,629L1351,574Z" fill="#0c5cb1" stroke="#0c5cb1"/><path d="M1351,574L1237,629L1403,667Z" fill="#0750ab" stroke="#0750ab"/><path d="M1351,574L1403,667L1516,560Z" fill="#0b4ca9" stroke="#0b4ca9"/><path d="M1516,560L1403,667L1514,646Z" fill="#0741a3" stroke="#0741a3"/><path d="M-31,629L-93,758L40,674Z" fill="#7b9ccc" stroke="#7b9ccc"/><path d="M40,674L-93,758L43,783Z" fill="#798ec4" stroke="#798ec4"/><path d="M40,674L43,783L151,759Z" fill="#718bbd" stroke="#718bbd"/><path d="M40,674L151,759L171,669Z" fill="#6d93bf" stroke="#6d93bf"/><path d="M171,669L151,759L271,646Z" fill="#6693ba" stroke="#6693ba"/><path d="M271,646L151,759L329,802Z" fill="#6186b1" stroke="#6186b1"/><path d="M271,646L329,802L389,761Z" fill="#5983ae" stroke="#5983ae"/><path d="M271,646L389,761L453,672Z" fill="#548bb4" stroke="#548bb4"/><path d="M453,672L389,761L515,693Z" fill="#4b84b4" stroke="#4b84b4"/><path d="M515,693L389,761L553,746Z" fill="#487cb1" stroke="#487cb1"/><path d="M515,693L553,746L678,695Z" fill="#3d7eb5" stroke="#3d7eb5"/><path d="M678,695L553,746L694,763Z" fill="#3773b2" stroke="#3773b2"/><path d="M678,695L694,763L754,756Z" fill="#316eb3" stroke="#316eb3"/><path d="M678,695L754,756L775,692Z" fill="#2e72b6" stroke="#2e72b6"/><path d="M775,692L754,756L922,808Z" fill="#2663b2" stroke="#2663b2"/><path d="M775,692L922,808L935,625Z" fill="#2068b8" stroke="#2068b8"/><path d="M935,625L922,808L1001,793Z" fill="#1959af" stroke="#1959af"/><path d="M935,625L1001,793L1019,632Z" fill="#1564b5" stroke="#1564b5"/><path d="M1019,632L1001,793L1117,770Z" fill="#0f52ac" stroke="#0f52ac"/><path d="M1019,632L1117,770L1168,651Z" fill="#0958af" stroke="#0958af"/><path d="M1168,651L1117,770L1249,753Z" fill="#0246a6" stroke="#0246a6"/><path d="M1168,651L1249,753L1237,629Z" fill="#004eaa" stroke="#004eaa"/><path d="M1237,629L1249,753L1356,763Z" fill="#003ea2" stroke="#003ea2"/><path d="M1237,629L1356,763L1403,667Z" fill="#0040a3" stroke="#0040a3"/><path d="M1403,667L1356,763L1476,789Z" fill="#002b98" stroke="#002b98"/><path d="M1403,667L1476,789L1514,646Z" fill="#002f9a" stroke="#002f9a"/><path d="M43,783L329,802L151,759Z" fill="#687db0" stroke="#687db0"/><path d="M329,802L922,808L694,763Z" fill="#3765ac" stroke="#3765ac"/><path d="M329,802L694,763L553,746Z" fill="#4372ad" stroke="#4372ad"/><path d="M329,802L553,746L389,761Z" fill="#4e76ab" stroke="#4e76ab"/><path d="M694,763L922,808L754,756Z" fill="#295faf" stroke="#295faf"/><path d="M922,808L1476,789L1001,793Z" fill="#06399f" stroke="#06399f"/><path d="M1001,793L1476,789L1117,770Z" fill="#00369d" stroke="#00369d"/><path d="M1117,770L1476,789L1356,763Z" fill="#002c98" stroke="#002c98"/><path d="M1117,770L1356,763L1249,753Z" fill="#00379e" stroke="#00379e"/></g></svg>